<?xml version="1.0" standalone="no"?>
<!DOCTYPE svg PUBLIC "-//W3C//DTD SVG 20010904//EN"
 "http://www.w3.org/TR/2001/REC-SVG-20010904/DTD/svg10.dtd">
<svg version="1.0" xmlns="http://www.w3.org/2000/svg"
 width="512.000000pt" height="512.000000pt" viewBox="0 0 512.000000 512.000000"
 preserveAspectRatio="xMidYMid meet">
<metadata>
Created by potrace 1.11, written by Peter Selinger 2001-2013
</metadata>
<g transform="translate(0.000000,512.000000) scale(0.100000,-0.100000)"
fill="#000000" stroke="none">
<path d="M2380 4444 l-165 -64 -167 2 c-155 3 -168 2 -194 -18 -41 -30 -66
-68 -73 -109 l-6 -37 -198 -73 c-198 -73 -235 -94 -263 -147 -28 -54 -17 -94
130 -488 80 -212 148 -393 151 -402 7 -17 -3 -18 -112 -18 -109 0 -121 -2
-154 -24 -73 -50 -69 16 -69 -1061 0 -1084 -5 -1012 73 -1063 l41 -27 1239 -3
1240 -2 43 21 c26 12 53 35 66 57 23 36 23 43 26 360 3 301 4 322 21 322 10 0
27 10 39 23 22 23 22 29 22 313 l0 291 -23 21 c-13 12 -31 22 -40 22 -14 0
-16 32 -19 323 -3 311 -4 323 -25 357 -44 71 -63 75 -285 72 -132 -2 -198 0
-198 7 0 6 61 144 136 308 151 330 162 366 124 430 -30 50 -37 55 -250 153
l-185 86 3 45 c7 88 -27 153 -97 189 -13 7 -109 16 -230 23 l-207 10 -29 61
c-63 129 -121 135 -365 40z m-5 -194 c68 -71 199 -130 290 -130 l44 0 21 -57
c12 -32 96 -260 188 -508 l168 -450 -89 -3 c-84 -3 -90 -1 -125 26 -81 62
-146 88 -247 98 -113 12 -274 -31 -365 -97 l-40 -29 -237 0 -238 0 -107 289
-107 289 35 38 c75 79 124 190 124 279 l0 43 278 102 c152 57 297 111 322 121
58 23 52 24 85 -11z m-938 -1326 c4 -10 -2 -23 -15 -33 -11 -9 -22 -27 -24
-41 -5 -39 -42 -34 -46 6 -5 56 67 114 85 68z m291 -11 c3 -22 0 -23 -57 -23
-61 0 -77 9 -67 36 4 11 19 14 63 12 51 -3 58 -6 61 -25z m297 2 c0 -17 -8
-20 -59 -23 -62 -3 -85 10 -64 36 8 9 30 12 67 10 48 -3 56 -6 56 -23z m299 9
c10 -27 -3 -34 -64 -34 -59 0 -76 9 -66 35 8 22 122 21 130 -1z m294 -11 c3
-22 0 -23 -62 -23 -57 0 -66 2 -66 18 0 29 10 33 70 30 48 -3 55 -6 58 -25z
m297 2 c0 -17 -8 -20 -59 -23 -62 -3 -83 6 -72 33 5 13 18 15 68 13 55 -3 63
-5 63 -23z m293 -2 c3 -22 0 -23 -57 -23 -61 0 -77 9 -67 36 4 11 19 14 63 12
51 -3 58 -6 61 -25z m297 2 c0 -17 -8 -20 -59 -23 -60 -3 -80 7 -69 35 4 10
22 13 67 11 53 -3 61 -5 61 -23z m233 9 c16 -11 22 -25 22 -55 0 -36 -2 -40
-22 -37 -13 2 -24 11 -26 23 -2 11 -13 27 -24 36 -44 34 3 66 50 33z m20 -319
c3 -64 -8 -86 -33 -65 -18 15 -21 100 -3 118 22 22 33 6 36 -53z m-2358 -11
c0 -62 -1 -65 -22 -62 -20 3 -23 10 -26 52 -4 60 2 76 28 76 18 0 20 -6 20
-66z m-2 -298 c-3 -53 -5 -61 -23 -61 -17 0 -20 8 -23 53 -3 57 10 85 34 75
11 -4 14 -20 12 -67z m1896 -159 c47 -27 76 -77 76 -132 0 -118 -136 -196
-230 -132 -55 37 -75 72 -75 132 0 121 124 193 229 132z m-1896 -131 c3 -63
-5 -81 -31 -70 -13 5 -17 19 -17 63 0 62 5 73 30 69 11 -2 16 -18 18 -62z m2
-302 c0 -62 -1 -65 -22 -62 -20 3 -23 10 -26 52 -4 60 2 76 28 76 18 0 20 -6
20 -66z m-5 -294 c0 -58 -2 -65 -20 -65 -17 0 -20 8 -23 54 -4 65 2 84 25 79
15 -3 18 -14 18 -68z m2360 5 c0 -47 -3 -60 -15 -60 -11 0 -16 15 -18 63 -3
57 -1 63 15 60 15 -3 18 -13 18 -63z m3 -254 c6 -39 -6 -67 -34 -79 -44 -21
-61 9 -24 41 11 9 20 25 20 35 0 39 33 41 38 3z m-2358 -6 c0 -15 7 -28 18
-32 38 -14 36 -53 -3 -53 -28 0 -65 43 -65 75 0 26 8 35 32 35 13 0 18 -7 18
-25z m335 -60 c0 -18 -7 -20 -60 -20 -55 0 -60 2 -63 23 -3 22 -1 23 60 20 55
-3 63 -5 63 -23z m300 0 c0 -17 -8 -20 -59 -23 -62 -3 -83 6 -72 33 5 13 18
15 68 13 55 -3 63 -5 63 -23z m293 3 c-3 -21 -8 -23 -63 -23 -55 0 -60 2 -63
23 -3 21 0 22 63 22 63 0 66 -1 63 -22z m297 -3 c0 -17 -8 -20 -59 -23 -60 -3
-80 7 -69 35 4 10 22 13 67 11 53 -3 61 -5 61 -23z m298 13 c10 -29 -6 -38
-63 -38 -60 0 -76 9 -66 35 7 19 122 21 129 3z m292 -13 c0 -18 -8 -20 -62
-23 -62 -3 -63 -2 -63 23 0 25 1 26 63 23 54 -3 62 -5 62 -23z m300 0 c0 -17
-8 -20 -59 -23 -62 -3 -83 6 -72 33 5 13 18 15 68 13 55 -3 63 -5 63 -23z"/>
<path d="M2075 3988 c-73 -26 -121 -84 -131 -159 -5 -38 3 -68 56 -209 71
-190 77 -201 130 -236 118 -78 300 16 300 155 0 51 -97 328 -134 384 -45 66
-139 94 -221 65z"/>
</g>
</svg>
